<svg xmlns="http://www.w3.org/2000/svg" viewBox="0 0 147.69 34.9"><defs><style>.cls-1{fill:#fff;}</style></defs><g id="Layer_2" data-name="Layer 2"><g id="pic"><polygon class="cls-1" points="63.08 1.01 48.2 15.26 48.2 1.09 40.62 1.09 40.62 33.81 48.2 33.81 48.2 24.76 53.61 19.68 63.39 33.81 73.34 33.81 59.59 14.08 72.66 1.01 63.08 1.01"/><polygon class="cls-1" points="101.86 1.01 86.98 15.26 86.98 1.09 79.4 1.09 79.4 33.81 86.98 33.81 86.98 24.76 92.39 19.68 102.17 33.81 112.12 33.81 98.38 14.08 111.45 1.01 101.86 1.01"/><path class="cls-1" d="M33.93,9.66A11.9,11.9,0,0,0,25.23,1,32,32,0,0,0,9.66,1,11.9,11.9,0,0,0,1,9.66,32.09,32.09,0,0,0,1,25.24a11.91,11.91,0,0,0,8.7,8.69,31.73,31.73,0,0,0,15.57,0,11.91,11.91,0,0,0,8.7-8.69,32.09,32.09,0,0,0,0-15.58M26.56,23.4a4.33,4.33,0,0,1-3.16,3.16,24.25,24.25,0,0,1-11.91,0A4.33,4.33,0,0,1,8.33,23.4a24.49,24.49,0,0,1,0-11.91,4.33,4.33,0,0,1,3.16-3.16,24.49,24.49,0,0,1,11.91,0,4.33,4.33,0,0,1,3.16,3.16,24.25,24.25,0,0,1,0,11.91"/><path class="cls-1" d="M146.73,9.66A11.9,11.9,0,0,0,138,1a32,32,0,0,0-15.57,0,11.9,11.9,0,0,0-8.7,8.7,32.09,32.09,0,0,0,0,15.58,11.91,11.91,0,0,0,8.7,8.69,31.73,31.73,0,0,0,15.57,0,11.91,11.91,0,0,0,8.7-8.69,32.09,32.09,0,0,0,0-15.58M139.36,23.4a4.33,4.33,0,0,1-3.16,3.16,24.25,24.25,0,0,1-11.91,0,4.33,4.33,0,0,1-3.16-3.16,24.49,24.49,0,0,1,0-11.91,4.33,4.33,0,0,1,3.16-3.16,24.49,24.49,0,0,1,11.91,0,4.33,4.33,0,0,1,3.16,3.16,24.25,24.25,0,0,1,0,11.91"/></g></g></svg>