<svg xmlns="http://www.w3.org/2000/svg" viewBox="0 0 189.47 52.15"><defs><style>.cls-1{fill:#fff;}</style></defs><g id="Layer_2" data-name="Layer 2"><g id="pic"><path class="cls-1" d="M79.23,36v8.89l1.15,0-.14,5.43H78.18l-.09-3.49H71l-.13,3.49H68.84l-.09-5.41,1-.06a7.72,7.72,0,0,0,1-2.23,13.52,13.52,0,0,0,.55-3.93V36Zm-5.55,3.53a12.81,12.81,0,0,1-.46,3.37,10.93,10.93,0,0,1-.79,1.94h4.16V38H73.68Z"/><path class="cls-1" d="M91.67,41.31c0,4-2.77,5.78-5.5,5.78a5.23,5.23,0,0,1-5.38-5.6c0-3.57,2.32-5.76,5.55-5.76S91.67,38,91.67,41.31Zm-8.08.11c0,2.1,1,3.69,2.66,3.69s2.62-1.52,2.62-3.73c0-1.7-.74-3.66-2.59-3.66S83.59,39.62,83.59,41.42Z"/><path class="cls-1" d="M102.2,33s-1.61.29-2.4.45c-1.67.33-2.81.71-3.59,1.69a6.36,6.36,0,0,0-1.16,3.11h.09A4,4,0,0,1,98.75,36c2.79,0,4.69,2.06,4.69,5.4,0,3.53-2.1,5.72-5.26,5.72-3.77,0-5.36-3.31-5.36-7.21a9.13,9.13,0,0,1,2-6.34,6.92,6.92,0,0,1,4.56-2.25l3-.51Zm-4.09,5a2.18,2.18,0,0,0-1.94,1.16,4.2,4.2,0,0,0-.55,2.21c0,1.6.73,3.81,2.56,3.81s2.48-1.85,2.48-3.61C100.66,39.92,100.07,37.94,98.11,37.94Z"/><path class="cls-1" d="M105.08,39.61c0-1.43,0-2.59-.09-3.62h2.38l.13,1.68h0a4.15,4.15,0,0,1,3.67-1.92c2.47,0,4.52,2.14,4.52,5.53,0,3.93-2.45,5.83-4.89,5.83a3.52,3.52,0,0,1-3-1.45h0v5.62h-2.71Zm2.71,2.7a3.77,3.77,0,0,0,.07.76,2.48,2.48,0,0,0,2.4,1.92c1.72,0,2.73-1.45,2.73-3.6,0-1.92-.93-3.48-2.67-3.48a2.57,2.57,0,0,0-2.44,2,3.17,3.17,0,0,0-.09.68Z"/><path class="cls-1" d="M128.16,41.33c0,4-2.78,5.78-5.51,5.78a5.22,5.22,0,0,1-5.37-5.6c0-3.57,2.31-5.76,5.55-5.76S128.16,38,128.16,41.33Zm-8.08.11c0,2.1,1,3.68,2.66,3.68s2.62-1.52,2.62-3.73c0-1.69-.75-3.65-2.6-3.65S120.08,39.63,120.08,41.44Z"/><path class="cls-1" d="M137,36v2.17h-4.38v8.7h-2.71V36Z"/><path class="cls-1" d="M148.61,41.33c0,4-2.78,5.78-5.51,5.78a5.22,5.22,0,0,1-5.37-5.6c0-3.57,2.31-5.76,5.55-5.76S148.61,38,148.61,41.33Zm-8.08.11c0,2.1,1,3.68,2.66,3.68s2.62-1.52,2.62-3.73c0-1.69-.75-3.65-2.6-3.65S140.53,39.63,140.53,41.44Z"/><path class="cls-1" d="M165.12,36.05v9.1l1.17.05-.13,5.55H164L164,47.19h-7.22l-.14,3.56h-2.11l-.1-5.53,1-.07a7.78,7.78,0,0,0,1.09-2.29,14,14,0,0,0,.56-4V36.05Zm-5.68,3.62a13.49,13.49,0,0,1-.48,3.45,10.11,10.11,0,0,1-.81,2h4.26v-7h-3Z"/><path class="cls-1" d="M170.67,36.05v4.26h4.24V36.05h2.77V47.19h-2.77V42.5h-4.24v4.69H167.9V36.05Z"/><path class="cls-1" d="M189.21,47.19h-2.75V42.77h-1a2.14,2.14,0,0,0-1.69.74,6.9,6.9,0,0,0-1.33,2.76c-.14.32-.27.57-.45.92h-3a6,6,0,0,0,.68-1.26,9.33,9.33,0,0,1,1.63-3.2,2.47,2.47,0,0,1,1.33-.73v-.07a2.93,2.93,0,0,1-2.87-2.77,2.79,2.79,0,0,1,1.67-2.56,8.91,8.91,0,0,1,3.88-.71,28.38,28.38,0,0,1,3.9.26Zm-2.75-9.42a9.58,9.58,0,0,0-1.38-.09c-1.21,0-2.45.41-2.45,1.67S184,41,185.08,41c.66,0,1,0,1.38,0Z"/><path class="cls-1" d="M86.24,21.7a35.47,35.47,0,0,0,.31,5.09H83.14l-.31-2.68H82.7a7.73,7.73,0,0,1-6.39,3.16,6,6,0,0,1-6.39-6.1c0-5.13,4.49-7.93,12.57-7.89v-.44c0-1.71-.48-4.91-4.75-4.87a10,10,0,0,0-5.49,1.58L71.39,7A13.33,13.33,0,0,1,78.3,5.12c6.39,0,7.94,4.43,7.94,8.64ZM82.58,16c-4.15-.09-8.85.65-8.85,4.77a3.36,3.36,0,0,0,3.53,3.7,5.31,5.31,0,0,0,5.15-3.57,4.7,4.7,0,0,0,.17-1.22Z"/><path class="cls-1" d="M108.8,5.56V26.79H105V8.59H95.28v18.2h-3.8V5.56Z"/><path class="cls-1" d="M129,5.56v3h-6.52v18.2h-3.8V8.59h-6.52v-3Z"/><path class="cls-1" d="M133.85,16.88c.08,5.21,3.32,7.36,7.17,7.36a13.45,13.45,0,0,0,5.78-1.09l.69,2.76a16.71,16.71,0,0,1-7,1.36c-6.42,0-10.27-4.34-10.27-10.74S133.93,5.12,140,5.12c6.87,0,8.64,6.05,8.64,10a9.27,9.27,0,0,1-.13,1.8ZM145,14.11c0-2.41-1-6.22-5.27-6.22-3.89,0-5.53,3.55-5.83,6.22Z"/><path class="cls-1" d="M157.13,5.56v9.21h.9l7.82-9.21h4.62l-9.07,9.56c3.37.4,5.4,2.68,7,6.5a44.94,44.94,0,0,0,2.2,5.17h-4a33.54,33.54,0,0,1-1.95-4.34c-1.42-3.42-3.36-5-6.86-5h-.73v9.34h-3.76V5.56Z"/><path class="cls-1" d="M189.17,21.7a35.57,35.57,0,0,0,.3,5.09h-3.41l-.3-2.68h-.13a7.74,7.74,0,0,1-6.39,3.16,6,6,0,0,1-6.39-6.1c0-5.13,4.48-7.93,12.56-7.89v-.44c0-1.71-.47-4.91-4.75-4.87a9.93,9.93,0,0,0-5.48,1.58L174.31,7a13.36,13.36,0,0,1,6.91-1.84c6.39,0,7.95,4.43,7.95,8.64ZM185.49,16c-4.14-.09-8.84.65-8.84,4.77a3.36,3.36,0,0,0,3.53,3.7,5.28,5.28,0,0,0,5.14-3.57,4.3,4.3,0,0,0,.17-1.22Z"/><rect class="cls-1" x="22.16" y="22.03" width="8.16" height="8.11"/><path class="cls-1" d="M8.9,26.07A4.08,4.08,0,0,0,13,30.14h4.36V22H13A4.06,4.06,0,0,0,8.9,26.07Z"/><path class="cls-1" d="M26.23,8.85a4.05,4.05,0,0,0-4.07,4.05v4.38h8.15V12.9A4.05,4.05,0,0,0,26.23,8.85Z"/><path class="cls-1" d="M22.16,39.26a4.08,4.08,0,0,0,8.15,0V34.91H22.16Z"/><path class="cls-1" d="M39.5,22H35.13v8.11H39.5a4.06,4.06,0,1,0,0-8.11Z"/><path class="cls-1" d="M40.94,0H11.53A11.53,11.53,0,0,0,0,11.47V40.69A11.53,11.53,0,0,0,11.53,52.15H40.94A11.53,11.53,0,0,0,52.47,40.69V11.47A11.53,11.53,0,0,0,40.94,0ZM39.5,34.91H35.13v4.35a8.9,8.9,0,1,1-17.8,0V34.91H13a8.82,8.82,0,1,1,0-17.63h4.36V12.9a8.9,8.9,0,1,1,17.8,0v4.38H39.5a8.82,8.82,0,1,1,0,17.63Z"/></g></g></svg>