<svg xmlns="http://www.w3.org/2000/svg" viewBox="0 0 144 33.48"><defs><style>.cls-1{fill:#fff;}</style></defs><g id="Layer_2" data-name="Layer 2"><g id="pic"><path class="cls-1" d="M65.45,33.4a3.24,3.24,0,0,1-3.09-2.26c-2.14-6.71-6.58-20.57-7-21.89h0a4.14,4.14,0,0,0-7.78,0c-.35,1.07-4.76,14.72-7.08,21.91a3.25,3.25,0,1,1-6.18-2c.28-.86,6.82-21.15,7.1-22l0-.07a10.64,10.64,0,0,1,20-.08.85.85,0,0,1,.06.17c.29.87,7,21.82,7.06,22a3.25,3.25,0,0,1-2.11,4.08,3.11,3.11,0,0,1-1,.16"/><path class="cls-1" d="M104.09,33.45A3.25,3.25,0,0,1,101,31.19c-2.14-6.71-6.58-20.57-7-21.89h0a4.14,4.14,0,0,0-7.78,0c-.35,1.07-4.76,14.72-7.08,21.91a3.25,3.25,0,0,1-6.18-2l7.1-22,0-.07a10.64,10.64,0,0,1,20-.08.87.87,0,0,1,.07.17l7,22a3.25,3.25,0,0,1-2.11,4.08,3.11,3.11,0,0,1-1,.16"/><path class="cls-1" d="M127.25,33.48A16.7,16.7,0,1,1,144,16.8a16.73,16.73,0,0,1-16.75,16.68m0-27.14A10.44,10.44,0,1,0,137.75,16.8,10.48,10.48,0,0,0,127.28,6.34"/><path class="cls-1" d="M27.71,5.6c-2.11-3.95-6.5-5.69-10.94-5h-.08C15.76.74,5.58,2.11,3.54,2.48A3.25,3.25,0,0,0,4.7,8.87c5.5-1,12.15-1.72,13.06-1.87,1.71-.24,3.41.14,4.22,1.67a4,4,0,0,1,.49,1.92V12L15,13.19l-4.36.7C5.14,14.79,0,16.7,0,24.58c0,5.73,4.65,8.74,9.25,8.74h2.14l11.77,0h.21a5.7,5.7,0,0,0,5.57-5.67l0-12.84V10.6A10.56,10.56,0,0,0,27.71,5.6ZM22.44,26.41a.49.49,0,0,1-.48.48H9.45A3,3,0,0,1,6.5,23.94,3.23,3.23,0,0,1,9,20.78l13.41-2.12Z"/><circle class="cls-1" cx="127.27" cy="16.78" r="5.09" transform="matrix(0.08, -1, 1, 0.08, 100.02, 142.23)"/></g></g></svg>