<svg xmlns="http://www.w3.org/2000/svg" viewBox="0 0 147.06 58.25"><defs><style>.cls-1{fill:#fff;}</style></defs><g id="Layer_2" data-name="Layer 2"><g id="pic"><path class="cls-1" d="M97,48.62a7.94,7.94,0,0,1-4.37-1h-.06L90.9,57.17H87.5l4.06-23.32c.42-2.63.84-5.62,1.14-7.83h3.17l-.6,4.18h.06c1.85-2.87,4.49-4.66,7.24-4.66,4.36,0,6.22,3.94,6.22,8-.06,7.72-5.15,15.07-11.84,15.07Zm4.3-20c-2.69,0-6.16,3.41-7.18,9.63l-1,6.16a5.81,5.81,0,0,0,3.83,1.25c4.48,0,8.19-6.1,8.19-11.9.06-2.39-.9-5.14-3.83-5.14Zm25.24,9.21a58.24,58.24,0,0,0-.9,10.22h-3.23a50.78,50.78,0,0,1,.48-5.74h-.06c-2.21,4.55-5,6.22-7.83,6.22-3.53,0-5.8-3.11-5.8-7.29,0-7.66,5.2-15.79,14-15.79a16.65,16.65,0,0,1,5.44.89l-2.09,11.49Zm-4.25-9.33c-5.2,0-9.45,6-9.51,12.14,0,2.45.78,4.9,3.47,4.9,2.87,0,6.28-4.12,7.3-10l1.2-6.69a7.31,7.31,0,0,0-2.46-.36Zm17.35,14.29c-2.16,4.79-4.19,8.67-7,11.6a12.28,12.28,0,0,1-5.86,3.83L125.89,55a12.66,12.66,0,0,0,3.71-2.15,16.94,16.94,0,0,0,3.89-5.09,1.48,1.48,0,0,0,.12-1L129.54,26h3.59l2,12c.48,2.51.72,4.18.9,5.8h.06c.54-1.44,1.13-3,2.15-5.38L143.41,26h3.65l-7.47,16.8Z"/><path class="cls-1" d="M61.36,53.41s9-15.07,10.71-22.19,1.85-10.83-4.61-11.48a84,84,0,0,0-13.75,0,46.09,46.09,0,0,1,23.74-6.1c13.57.35,21.41,6.1,21.41,6.1a35.82,35.82,0,0,1-7.66,1.55c-4.66.48-6.51,1.56-6.1,6.88a28.05,28.05,0,0,0,2.28,9.15s-7.6-5.14-12.26,0S69.43,44.73,66.68,48a39.85,39.85,0,0,1-5.32,5.39Z"/><path class="cls-1" d="M77,0a5.68,5.68,0,1,1-5.68,5.68A5.68,5.68,0,0,1,77,0Z"/><path class="cls-1" d="M3.59,38.4A9.39,9.39,0,0,0,4,42.58a4.66,4.66,0,0,0,4.6,3A11.25,11.25,0,0,0,14.17,44l.54,2.81a13.64,13.64,0,0,1-6.82,1.73C2.39,48.56,0,44.62,0,39.71,0,33,4.61,25.48,11.3,25.48c3.95,0,6,2.51,6,5.68,0,5.8-6.1,7.35-13.75,7.24Zm7.18-9.93c-3.35,0-5.93,3.53-6.76,7,5.56.06,9.92-.71,9.92-4.18,0-1.8-1.31-2.81-3.16-2.81Zm24.16,9.39A58.24,58.24,0,0,0,34,48.08H30.74c0-1.31.24-3.41.48-5.74H31.1c-2.27,4.55-5.08,6.22-8,6.22-3.65,0-5.93-3.11-5.93-7.29,0-7.66,5.33-15.79,14.3-15.79a17.46,17.46,0,0,1,5.56.89L34.93,37.86Zm-4.37-9.33c-5.32,0-9.69,6-9.75,12.14,0,2.45.84,4.9,3.53,4.9,2.93,0,6.46-4.12,7.48-10L33,28.89a7,7,0,0,0-2.45-.36Zm19.38.95a6.85,6.85,0,0,0-3.59-1,3.39,3.39,0,0,0-3.65,3.35c0,1.61,1,2.63,2.81,3.7,2.33,1.44,3.89,3.35,3.89,5.81,0,4.66-3.53,7.29-7.89,7.29a8.83,8.83,0,0,1-5.15-1.49l1-2.81a8.69,8.69,0,0,0,4.42,1.37,3.69,3.69,0,0,0,3.95-3.59c0-1.73-.72-2.81-2.87-4.06-2.39-1.44-3.71-3.41-3.71-5.63,0-3.88,3.11-6.87,7.48-6.87a8.39,8.39,0,0,1,4.3,1.07l-1,2.87ZM62.08,42.82c-2.21,4.79-4.31,8.67-7.12,11.6a12.52,12.52,0,0,1-6,3.83L48.08,55a13.64,13.64,0,0,0,3.83-2.15,16.12,16.12,0,0,0,4-5.09,1.48,1.48,0,0,0,.12-1L51.85,26H55.5l2,12c.48,2.51.72,4.18,1,5.8h.06c.54-1.44,1.14-3,2.21-5.38L66,26h3.76l-7.71,16.8Z"/></g></g></svg>