<svg xmlns="http://www.w3.org/2000/svg" viewBox="0 0 158.23 44.68"><defs><style>.cls-1{fill:#fff;}</style></defs><g id="Layer_2" data-name="Layer 2"><g id="pic"><path class="cls-1" d="M56.57,22.28c6.51,1.9,9.49,5.42,9.31,8.67C65.34,44,42.38,45.05,33,44.6c-2.53-.09-10.48-.45-10.39-4.25.09-1.35,2.53-4.7,3.62-5.69A15.88,15.88,0,0,1,31.9,33c.36,0,.54.09.54.45,0,.64-.72,1-1.17,1.18s-.73.54-1.18.9v.09c23.32,2,30-4.42,30-5.51.18-3.34-17.8-6.69-21-7.41s-6.6-1.9-6.42-5.78a24.92,24.92,0,0,1,2.44-8.59C37.32,5.11,49.43-.58,63.71.05a37.13,37.13,0,0,1,8.22,1.26c1.45.37,1.63.91,1.63,2.26-.18,4.79-1.9,5.88-5.78,7.23a18.22,18.22,0,0,0-6.06,3,4.69,4.69,0,0,1-1.63.55.9.9,0,0,1-1-1c0-.09,1.36-2.08,5-4.34L64,8.81c-16.9-.18-24.4,5.61-24.49,7.14-.09.91-1,1.27,17.08,6.33"/><path class="cls-1" d="M18.8,37.1a27,27,0,0,1-7.59,1.17C4,38.27,0,33.85,0,28.33,0,23.27,3.34,15.5,13,15.5c5.7,0,10,2.89,10,9.49a25.56,25.56,0,0,1-.54,4.07H7.14c.09,2.35,1.26,4.15,5.87,4.15a17.18,17.18,0,0,0,6.78-1.53ZM16.72,24.9c0-2.35-.91-4.34-3.71-4.34A5.46,5.46,0,0,0,7.5,24.9ZM69.31,37.82h7.77L79.7,25.35h9.22L86.3,37.82h7.77l6.06-29.1H92.36L90.1,19.84H80.88L83.14,8.72H75.37Zm44.64.45c-9.49,0-12.92-5.87-12.92-11.83,0-11,5.78-18.26,17-18.26,9.49,0,12.92,5.88,12.92,11.84.09,11-5.69,18.25-17,18.25M117.57,14c-6,0-8.5,7-8.5,11.83,0,3.71,1.36,6.69,5.43,6.69,6,0,8.49-7,8.49-11.84C123,17,121.63,14,117.57,14m20.06-5.25h7.77c6.42,0,12.83.64,12.83,8,0,7.23-6,10.93-12.92,10.93h-4l-2.25,10.12H131.3Zm4.79,13.38h2.08c3.07,0,5.87-1.09,5.87-4.52,0-2.8-1.9-3.34-4-3.34h-2.26Z"/></g></g></svg>