<svg xmlns="http://www.w3.org/2000/svg" viewBox="0 0 194.39 54.84"><defs><style>.cls-1{fill:#fff;}</style></defs><g id="Layer_2" data-name="Layer 2"><g id="pic"><path class="cls-1" d="M194.36,23.31l0-21.92a1.38,1.38,0,0,0-1.87-1.3L171.15,8l-.77.28-.58.26a17.39,17.39,0,0,0-7.23,6,17.44,17.44,0,0,0,28.71,19.82,17.35,17.35,0,0,0,3.07-8.87V25.4a18.22,18.22,0,0,0,0-2.09m-5.85,1.59a11.16,11.16,0,0,1-2,5.78,11.43,11.43,0,1,1-14.09-16.9l.38-.17c.17-.07.34-.12.51-.18l13.27-4.89a1.4,1.4,0,0,1,1.88,1.3l0,13.63a12.32,12.32,0,0,1,0,1.36Z"/><path class="cls-1" d="M177.13,29.48A4.78,4.78,0,0,1,173,22.23l.09-.15.13-.18,3.9-5.57,3.77,5.39a5.59,5.59,0,0,1,.33.47v0a4.78,4.78,0,0,1-4.11,7.27"/><path class="cls-1" d="M122.85,44.63c1,0,2.45.52,2.45,1.27a.49.49,0,0,1-.55.49c-.53,0-.73-.73-1.9-.73-.69,0-1.28.29-1.28.9,0,1.26,3.92,1.13,3.92,3.21,0,1.51-1.31,2.23-2.68,2.23-1.54,0-2.76-.76-2.76-1.37a.51.51,0,0,1,.5-.54c.54,0,1,.88,2.3.88.89,0,1.43-.49,1.43-1,0-1.41-3.93-1.33-3.93-3.33a2.26,2.26,0,0,1,2.5-2"/><path class="cls-1" d="M131.27,47.43a1.7,1.7,0,1,0-3.4,0v3.93a.61.61,0,1,1-1.22,0V42.83a.61.61,0,1,1,1.22,0v2.72l0,0a2.53,2.53,0,0,1,2-.95,2.49,2.49,0,0,1,2.55,2.73v4a.61.61,0,1,1-1.21,0Z"/><path class="cls-1" d="M137,44.63c2.07,0,3.23,1.77,3.23,3.68S139.07,52,137,52s-3.23-1.78-3.23-3.69,1.16-3.68,3.23-3.68M137,51c1.49,0,2-1.44,2-2.66s-.53-2.65-2-2.65-2,1.43-2,2.65.53,2.66,2,2.66"/><path class="cls-1" d="M141.57,45.26a.61.61,0,1,1,1.22,0v.36h0a2,2,0,0,1,2-1c2,0,3.13,1.77,3.13,3.68S146.77,52,144.78,52a2.39,2.39,0,0,1-2-1h0V54.2a.61.61,0,1,1-1.22,0ZM144.68,51c1.49,0,2-1.44,2-2.66s-.53-2.65-2-2.65-2,1.43-2,2.65.53,2.66,2,2.66"/><path class="cls-1" d="M28.81,38.86a2.77,2.77,0,0,1-4,0,3.14,3.14,0,0,1-.77-2.23V26.76A4.15,4.15,0,0,0,23.18,24a2.87,2.87,0,0,0-2.36-1,2.94,2.94,0,0,0-2.4,1,4.15,4.15,0,0,0-.86,2.76v9.87a3.18,3.18,0,0,1-.77,2.23,2.57,2.57,0,0,1-2,.85,2.56,2.56,0,0,1-2-.85A3.18,3.18,0,0,1,12,36.63V26.76A4.15,4.15,0,0,0,11.16,24,2.89,2.89,0,0,0,8.8,23a2.88,2.88,0,0,0-2.5,1,4.54,4.54,0,0,0-.77,2.76v9.87a3.14,3.14,0,0,1-.77,2.23,2.54,2.54,0,0,1-2,.85,2.56,2.56,0,0,1-2-.85A3.18,3.18,0,0,1,0,36.63V21.42a3.22,3.22,0,0,1,.77-2.23,2.58,2.58,0,0,1,2-.84A2.34,2.34,0,0,1,4.49,19a2.87,2.87,0,0,1,.81,1.65,6.66,6.66,0,0,1,5.15-2.3,7,7,0,0,1,5.72,2.8A8,8,0,0,1,19,19.08,7.44,7.44,0,0,1,22,18.35a9.39,9.39,0,0,1,3.08.48A6.32,6.32,0,0,1,29,22.57a8.67,8.67,0,0,1,.56,3.23V36.63a3.18,3.18,0,0,1-.77,2.23"/><path class="cls-1" d="M49.71,20.73a3.18,3.18,0,0,1-.27,1.42L40.18,45.43a4.5,4.5,0,0,1-1,1.54,2.18,2.18,0,0,1-1.63.65,2.87,2.87,0,0,1-2.15-.75,2.28,2.28,0,0,1-.73-1.63,3.84,3.84,0,0,1,.09-.83,6.46,6.46,0,0,1,.25-.78l2.42-6-6.1-15.48a5.52,5.52,0,0,1-.2-.65,3.67,3.67,0,0,1-.07-.77,1.84,1.84,0,0,1,.25-.94A2.73,2.73,0,0,1,32,19a2.93,2.93,0,0,1,.85-.5,2.59,2.59,0,0,1,.88-.17,2.78,2.78,0,0,1,1.71.52,3,3,0,0,1,1.06,1.44L40.26,31l4.07-10.64a3,3,0,0,1,1.06-1.44,2.78,2.78,0,0,1,1.71-.52,2.63,2.63,0,0,1,.88.17,2.93,2.93,0,0,1,.85.5,3.13,3.13,0,0,1,.63.77,1.84,1.84,0,0,1,.25.94"/><path class="cls-1" d="M89.43,21a3.13,3.13,0,0,1-.15.94c-.11.32-.23.7-.39,1.13L84.09,36.9a5.19,5.19,0,0,1-1.21,2,2.86,2.86,0,0,1-2.13.79,3,3,0,0,1-2-.67,4.15,4.15,0,0,1-1.15-1.91L74.72,28h-.08L71.8,37.13A4.15,4.15,0,0,1,70.65,39a3.06,3.06,0,0,1-2,.67,2.84,2.84,0,0,1-2.13-.79,5.07,5.07,0,0,1-1.21-2L60.5,23.19a14.08,14.08,0,0,1-.44-1.42,5.23,5.23,0,0,1-.13-1.19A2,2,0,0,1,60.7,19a3,3,0,0,1,2-.65,2.33,2.33,0,0,1,1.66.61,3.76,3.76,0,0,1,1,1.58l3.26,10.79h.08l3.22-10.56a4.52,4.52,0,0,1,1-1.77,2.94,2.94,0,0,1,3.69,0,4.52,4.52,0,0,1,1,1.77l3.23,10.56h.08l3.26-10.79A3.76,3.76,0,0,1,85,19a2.32,2.32,0,0,1,1.65-.61,2.84,2.84,0,0,1,2,.71,2.56,2.56,0,0,1,.77,2"/><path class="cls-1" d="M108.45,36.75a3.15,3.15,0,0,1-.73,2.09,2.43,2.43,0,0,1-2,.87,2.81,2.81,0,0,1-1.6-.48,2.89,2.89,0,0,1-1-1.79,3.19,3.19,0,0,1-.94,1,6.25,6.25,0,0,1-1.3.71,7.58,7.58,0,0,1-1.48.42,8.46,8.46,0,0,1-1.46.14,10.69,10.69,0,0,1-3.09-.42A7,7,0,0,1,92.46,38,5.84,5.84,0,0,1,90.89,36a6.79,6.79,0,0,1-.58-2.86,5.56,5.56,0,0,1,1.25-3.8,8.05,8.05,0,0,1,3.13-2.17,15.21,15.21,0,0,1,4.09-1,38.34,38.34,0,0,1,4.13-.23v-1.5a1.15,1.15,0,0,0-.63-1.13,3.94,3.94,0,0,0-1.79-.33,5.51,5.51,0,0,0-2,.29,6.76,6.76,0,0,0-1.32.65l-1,.65a1.68,1.68,0,0,1-1,.29,2.16,2.16,0,0,1-1.86-.75,2.63,2.63,0,0,1-.56-1.59,2.24,2.24,0,0,1,.75-1.6,7.3,7.3,0,0,1,1.88-1.32,11.89,11.89,0,0,1,5-1.23,9.48,9.48,0,0,1,5.9,1.59,5.48,5.48,0,0,1,2.06,4.59Zm-5.31-6.68h-2.59a10.71,10.71,0,0,0-2.42.25,3.91,3.91,0,0,0-1.8.88,2.4,2.4,0,0,0-.72,1.9,1.59,1.59,0,0,0,.29,1,2.07,2.07,0,0,0,.77.62,3.9,3.9,0,0,0,1.08.32,6.89,6.89,0,0,0,1.21.1A4.17,4.17,0,0,0,102.15,34a4.36,4.36,0,0,0,1-3.07Z"/><path class="cls-1" d="M122.51,21.23a2.13,2.13,0,0,1-.79,1.86,3.18,3.18,0,0,1-1.87.56h-1.57v13a3.18,3.18,0,0,1-.77,2.23,2.77,2.77,0,0,1-4,0,3.14,3.14,0,0,1-.77-2.23v-13h-1.23a2.24,2.24,0,0,1-2.42-2.42,2.36,2.36,0,0,1,2.42-2.42h1.23v-3.3a3.14,3.14,0,0,1,.77-2.23,2.77,2.77,0,0,1,4,0,3.18,3.18,0,0,1,.77,2.23v3.3h1.57a3.24,3.24,0,0,1,1.87.54,2.12,2.12,0,0,1,.79,1.88"/><path class="cls-1" d="M141.44,28.41a2.64,2.64,0,0,1-.57,1.85,2.44,2.44,0,0,1-1.85.61H127.23a4.1,4.1,0,0,0,1.79,3,6.15,6.15,0,0,0,3.43,1,5.49,5.49,0,0,0,2-.35,12.24,12.24,0,0,0,1.67-.77l1.43-.76a2.46,2.46,0,0,1,1.19-.35,2.1,2.1,0,0,1,1.57.75A2.36,2.36,0,0,1,141,35a2.48,2.48,0,0,1-.82,1.73,7.94,7.94,0,0,1-2.14,1.5,13.92,13.92,0,0,1-2.92,1,12.85,12.85,0,0,1-3.15.41,10.72,10.72,0,0,1-4.24-.81,9.74,9.74,0,0,1-3.27-2.23,10,10,0,0,1-2.11-3.36,12,12,0,0,1,0-8.3,10.94,10.94,0,0,1,2-3.41,9.79,9.79,0,0,1,3.13-2.37,9.54,9.54,0,0,1,8.09,0,10.56,10.56,0,0,1,3.15,2.38,10.89,10.89,0,0,1,2,3.25,9.32,9.32,0,0,1,.71,3.51m-5.53-1.23a5.26,5.26,0,0,0-1.34-3A4,4,0,0,0,131.49,23a4,4,0,0,0-3,1.23,5,5,0,0,0-1.37,3Z"/><path class="cls-1" d="M155.5,21.31a1.68,1.68,0,0,1-.29,1.07,2.49,2.49,0,0,1-.74.66,6.14,6.14,0,0,1-1.06.46,8.16,8.16,0,0,0-1.21.5c-.41.18-.81.37-1.21.57a5.53,5.53,0,0,0-1.08.73,3.24,3.24,0,0,0-.76,1,3,3,0,0,0-.29,1.38v9a3.18,3.18,0,0,1-.77,2.23,2.78,2.78,0,0,1-4,0,3.18,3.18,0,0,1-.76-2.23V21.11a2.44,2.44,0,0,1,.9-2.07,3.13,3.13,0,0,1,1.94-.69,3.6,3.6,0,0,1,1.9.48,2,2,0,0,1,.79,1.82h.07a5.88,5.88,0,0,1,1.68-1.72,3.94,3.94,0,0,1,2.2-.58,2.77,2.77,0,0,1,1.85.73,2.8,2.8,0,0,1,.84,2.23"/></g></g></svg>