<svg xmlns="http://www.w3.org/2000/svg" viewBox="0 0 167.06 44.67"><defs><style>.cls-1{fill:#fff;fill-rule:evenodd;}</style></defs><g id="Layer_2" data-name="Layer 2"><g id="pic"><path class="cls-1" d="M0,.76H43.91V44.67H0V.76ZM1.27,2V43.4H42.64V2ZM3.46,35l5.4,5.5L21.5,27.71l13.07,13.1L40,35.39,27.11,22.45,29.6,20V14.91l1.56-1.32v4l2,1.64,6-6,1.93,1.48C42.24,10.52,35.65,1,30.21,6.26l-6.35,6.3,1.29,1.56-3.22,3.15L18.81,14.2l1.64-1.48L13.49,6C8.25,1.69,2.88,8.25,2.7,14.65l1.9-1.59,5.85,6.3,2.09-1.75V13.75l1.29,1v5.05l2.54,2.54L3.46,35ZM55.12,6V9.84h1.64C59,9.41,58.4,6.18,56.76,6ZM50.47,2.24V19.49h4.65V13.88l4,5.61h5.5l-4.89-6.9c5.66-2.75,3.54-10.27-2.41-10.35ZM72,10.87a2.68,2.68,0,0,1,2.77,2.59,2.77,2.77,0,0,1-5.52,0A2.68,2.68,0,0,1,72,10.87ZM71,7.06a6,6,0,0,1,3.44,1.11V7.51H79l0,12h-4.6l0-.74A6,6,0,0,1,71,19.83a6.28,6.28,0,0,1-6.17-6.37A6.31,6.31,0,0,1,71,7.06Zm10.42.45h4.84v12H81.44v-12ZM83.87.66a2.57,2.57,0,1,1-2.56,2.56A2.56,2.56,0,0,1,83.87.66Zm36.74,6.85h4.84v12h-4.84v-12ZM123,.66a2.57,2.57,0,1,1-2.54,2.56A2.56,2.56,0,0,1,123,.66ZM87.18,7.51v3.81h1.66v8.17h4.69V11.32h4.39v8.17h4.84V11.26h3V7.56h-3.15V4.89c-.08-1,2.23-1.38,3-.58V.39c-4.44-1.4-8,1.11-8,5V7.51H93.5V4.89c0-1,2-1.38,3.12-.58V.39c-3.86-1.13-8,.74-8,5V7.48l-1.48,0Zm25.5,12.32c4.15,0,5.68-1.74,6.58-4.26h-4.2a2.45,2.45,0,0,1-4.55-1.32h8.88c0-4.86-2.59-7.17-6.71-7.17A6.35,6.35,0,0,0,106,13.54a6.45,6.45,0,0,0,6.72,6.29Zm-1.57-8.41c.06-1.45,3.23-1.45,3.44,0Zm34.52,8.41c4.18,0,5.71-1.74,6.61-4.26H148a2.45,2.45,0,0,1-4.55-1.32h8.89c0-4.86-2.57-7.17-6.72-7.17a6.35,6.35,0,0,0-6.72,6.46,6.46,6.46,0,0,0,6.72,6.29Zm-1.56-8.41c.05-1.45,3.23-1.45,3.44,0Zm-6.43-3.67-1.43,2.91c-1.79-.56-3.54-.45-3.49.05.06.32-.23.87,2.57,1.27,4.18.66,3.83,8.44-3.17,7.85a10.52,10.52,0,0,1-4.79-1.4l1.56-3.12c2.19,1.08,4.31,1.72,4.47.64.18-1.35-2.3-.88-3.81-2-2.7-1.66-1.16-6.82,3.25-6.87a13,13,0,0,1,4.84.69Zm16.56-.24v12h4.52V12.16c.14-1.82,3.73-2.14,3.76,0v7.33h4.58V12c-.11-4.21-4.53-6.24-8.52-3.57v-.9ZM53.14,26.82l-3,17.77h8.55c5.79,0,8.17-7.19,4-9.65,3.52-3.26,1.72-8.15-2.06-8.2l-7.51.08Zm3.46,10.6L56,40.36h2c2.25.1,2-2.94.69-2.94Zm1-6.37-.51,2.38.61,0c1.83.11,2.89-2.4.69-2.4Zm7,13.57h5.19l1.56-3.13h5.87l.87,3.18h4.79L78.77,26.92h-4.9l-9.23,17.7Zm8.44-6.85h3.23l-1-4.69-2.2,4.69Zm11.48,6.9h4.79l1.21-11.14,6.85,11.09h5.13l2.15-17.8H99.9L98.55,38,91.7,26.76h-5L84.56,44.67Zm23.57-17.91-3.36,17.86h5L111.17,38l4.52,6.67h6.64l-6.48-9.37,8.28-8.51H117.7L112,33l.9-6.29-4.81,0Z"/></g></g></svg>