<svg xmlns="http://www.w3.org/2000/svg" viewBox="0 0 189.47 43.25"><defs><style>.cls-1{fill:#fff;}</style></defs><g id="Layer_2" data-name="Layer 2"><g id="pic"><path class="cls-1" d="M35.19,36.75c0,1-.86,1.5-2.52,1.5s-2.53-.51-2.53-1.5v-19a6.3,6.3,0,0,1,2.13-5.07,7.76,7.76,0,0,1,5.18-1.81,7.68,7.68,0,0,1,5.17,1.81,6.31,6.31,0,0,1,2.14,5.07v6.05a6.5,6.5,0,0,1-1.94,5.15,6.63,6.63,0,0,1-4.5,1.72,4.92,4.92,0,0,1-3.16-.9v7Zm4.59-19.09a2.31,2.31,0,1,0-4.59,0v6.09a2.31,2.31,0,1,0,4.59,0Z"/><path class="cls-1" d="M62.93,31.45c0,4.33-2.93,7-7.63,7a9.17,9.17,0,0,1-5.49-1.61,1.54,1.54,0,0,1-.67-1.26,2.78,2.78,0,0,1,.71-1.81,2,2,0,0,1,1.46-.82,1.54,1.54,0,0,1,.91.31,4.29,4.29,0,0,0,2.77,1,2.65,2.65,0,0,0,2.84-2.79V29.73a5.18,5.18,0,0,1-3.2.9,6.57,6.57,0,0,1-4.5-1.73,6.47,6.47,0,0,1-1.94-5.15V12.47c0-1,.87-1.49,2.53-1.49s2.53.51,2.53,1.49V23.75c-.24,3.38,4.86,3.38,4.58,0V12.47c0-1,.87-1.49,2.53-1.49s2.53.51,2.53,1.49v19Z"/><path class="cls-1" d="M81.73,28.94c0,1-.83,1.49-2.52,1.49s-2.53-.51-2.53-1.49v-.31a9.35,9.35,0,0,0-.63-3.74,7.12,7.12,0,0,0-2.22-2.51l-1.22.78c-.48.32-.71.59-.71.91v4.87c0,1-.83,1.49-2.53,1.49s-2.53-.51-2.53-1.49V12.47c0-1,.87-1.49,2.53-1.49s2.53.51,2.53,1.49v6.29a1.83,1.83,0,0,1,.63-.51l1-.63a4.94,4.94,0,0,0,2.6-4.4v-.75c0-1,.87-1.49,2.53-1.49s2.53.51,2.53,1.49v.71a7.12,7.12,0,0,1-3.36,6.68,9.11,9.11,0,0,1,3.08,3.46,12.44,12.44,0,0,1,.83,5.07Z"/><path class="cls-1" d="M89.87,16.8c0,1-.87,1.49-2.53,1.49s-2.52-.51-2.52-1.49v-.28a5.23,5.23,0,0,1,2-4,7.55,7.55,0,0,1,5.14-1.69c4.42,0,7.31,2.64,7.31,6.8v6.25a6.15,6.15,0,0,1-2.1,5,7.93,7.93,0,0,1-5.21,1.73,7.63,7.63,0,0,1-5.22-1.77,5.62,5.62,0,0,1-2-4.32c0-2.71,1.62-4.48,4.86-5.27l3.08-.74c1.07-.28,1.58-.59,1.58-1.06v-.55a2.2,2.2,0,0,0-4.35-.2v.16Zm4.35,7.42V22a2.52,2.52,0,0,1-1,.43l-2,.52a1.75,1.75,0,0,0-1.51,1.72c0,1.14.91,1.85,2.26,1.85A2.06,2.06,0,0,0,94.22,24.22Z"/><path class="cls-1" d="M103.86,30.16a1,1,0,0,1-1-.95v-17a1,1,0,0,1,1-.94h7c3.79,0,6.09,2.08,6.09,5a4.66,4.66,0,0,1-2,4,4.66,4.66,0,0,1,2.49,4.45c0,3.1-2.37,5.46-6.48,5.46Zm4.07-14.86v3.23h2.21c1.19,0,1.78-.55,1.78-1.62s-.59-1.61-1.78-1.61Zm0,7.23v3.62h2.53c1.34,0,2-.59,2-1.81s-.67-1.81-2-1.81Z"/><path class="cls-1" d="M129.94,18l-4.15,5v6c0,1-.87,1.49-2.53,1.49S120.73,30,120.73,29V12.47c0-1,.87-1.49,2.53-1.49s2.53.51,2.53,1.49v4.6L129.9,12a3.16,3.16,0,0,1,2.56-1c1.66,0,2.53.51,2.53,1.49V28.94c0,1-.87,1.49-2.53,1.49s-2.52-.51-2.52-1.49Z"/><path class="cls-1" d="M148.11,12.47c0-1,.83-1.49,2.53-1.49s2.53.51,2.53,1.49V28.94c0,1-.87,1.49-2.53,1.49s-2.53-.51-2.53-1.49V23.63a4.51,4.51,0,0,1-3.24,1,6.57,6.57,0,0,1-4.5-1.73,6.59,6.59,0,0,1-1.9-5.15V12.47c0-1,.87-1.49,2.53-1.49s2.53.51,2.53,1.49v4.88c0,2,.79,3.06,2.29,3.06s2.33-1,2.33-3.06V12.47Z"/><path class="cls-1" d="M172,28.94c0,1-.87,1.49-2.53,1.49s-2.53-.51-2.53-1.49v-.31a9.18,9.18,0,0,0-.63-3.74,7,7,0,0,0-2.21-2.51l-1.23.78c-.47.32-.71.59-.71.91v4.87c0,1-.87,1.49-2.53,1.49s-2.52-.51-2.52-1.49V12.47c0-1,.87-1.49,2.52-1.49s2.53.51,2.53,1.49v6.29a1.9,1.9,0,0,1,.64-.51l1-.63a5,5,0,0,0,2.61-4.4v-.75c0-1,.87-1.49,2.53-1.49s2.53.51,2.53,1.49v.71a7.2,7.2,0,0,1-3.36,6.68,9.19,9.19,0,0,1,3.08,3.46,12.53,12.53,0,0,1,.87,5.07v.55Z"/><path class="cls-1" d="M180.11,16.8c0,1-.87,1.49-2.53,1.49s-2.53-.51-2.53-1.49v-.28a5.21,5.21,0,0,1,2-4,7.54,7.54,0,0,1,5.13-1.69c4.43,0,7.31,2.64,7.31,6.8v6.25a6.15,6.15,0,0,1-2.09,5,7.93,7.93,0,0,1-5.22,1.73A7.6,7.6,0,0,1,177,28.78a5.63,5.63,0,0,1-2-4.32c0-2.71,1.62-4.48,4.86-5.27l3.09-.74c1.06-.28,1.58-.59,1.58-1.06v-.55a2.2,2.2,0,0,0-4.35-.2v.16Zm4.35,7.42V22a2.52,2.52,0,0,1-1,.43l-2,.52a1.75,1.75,0,0,0-1.5,1.72c0,1.14.91,1.85,2.25,1.85A2.08,2.08,0,0,0,184.46,24.22Z"/><path class="cls-1" d="M24.61,20.57l-.12-.24a5.45,5.45,0,0,0-1-1.25,5.9,5.9,0,0,0-3-1.26,15.3,15.3,0,0,0,2.68-3.19c.4-.66,2.41-4,1.7-7.46A8.81,8.81,0,0,0,16.62.06S1.65-2,.27,19.31C-.28,27.8.19,36.41.19,37.78s1.22-3.1,8-4.68c6-1.41,13.51-1.13,16.67-7.58A6.56,6.56,0,0,0,24.61,20.57Zm-6.29,6.8c-2.05,1.18-3.91,1.65-7.38,2.2-5.54.86-7.43,2.08-7.43,2.08,0-3.69,0-12.18,1-16.5,1.18-5.31,3.71-7.79,6.24-9a8,8,0,0,1,6.12-.4,6.49,6.49,0,0,1,3.24,8.61,20.24,20.24,0,0,1-3.36,5c-.19.2-.27.63.28.63a2,2,0,0,0,.43-.08,3.62,3.62,0,0,1,3.32.71C23.3,22.69,20.46,26.19,18.32,27.37Z"/><path class="cls-1" d="M5.29,37.11A9,9,0,0,0,.9,42.26c-.39,1.06-.2,1.22.71.71A13.69,13.69,0,0,1,7.42,41.2c6.05-.51,9.6-1.41,10.94-7.31.08-.27.12-.51-.43-.27C12.6,35.7,9.87,34.79,5.29,37.11Z"/></g></g></svg>