<svg xmlns="http://www.w3.org/2000/svg" viewBox="0 0 210 39.78"><defs><style>.cls-1,.cls-2{fill:#fff;}.cls-2{fill-rule:evenodd;}</style></defs><g id="Layer_2" data-name="Layer 2"><g id="pic"><path class="cls-1" d="M117.55,13.09a6.76,6.76,0,0,1,6.77,6.77c0,.1,0,.24,0,.42h0v.09c0,.11,0,.21,0,.31v9.64a2.09,2.09,0,0,1-.39,1.25.63.63,0,0,1-.11.13,1.84,1.84,0,0,1-1.52.7c-1.34,0-2-.69-2-2.08V27.47a16.91,16.91,0,0,1-1.67,1.82,14.68,14.68,0,0,1-4.78,3h0a2.08,2.08,0,0,1-2-.23h0a2,2,0,0,1-.6-.68,1.83,1.83,0,0,1-.23-1v0h0a1.86,1.86,0,0,1,1.13-1.67h0a14,14,0,0,0,3.47-2.26l.07-.06a6.66,6.66,0,0,1-2.92-1.72,6.77,6.77,0,0,1,4.79-11.56ZM110.41,23a10.15,10.15,0,0,1-.71,3.8,9.88,9.88,0,0,1-2.14,3.2,9.95,9.95,0,0,1-14,0l-.11-.11A9.52,9.52,0,0,1,90.65,23a9.94,9.94,0,0,1,6-9.15h0a10,10,0,0,1,3.79-.73,9.6,9.6,0,0,1,7,2.87,10,10,0,0,1,2.19,3.19,9.82,9.82,0,0,1,.73,3.8ZM75.57,30.12a6.8,6.8,0,0,1-1.25-1.63,7.14,7.14,0,0,1-.71-2l0-.3c0-.09,0-.18,0-.29s-.06-.38-.08-.56,0-.39,0-.63c0-.07,0-.15,0-.22v-.23h0l0-.51V13.58c0-.06,0-.13,0-.19v-.11a2.09,2.09,0,0,1,0-.25,6.73,6.73,0,0,1,2-4.43h0a6.74,6.74,0,0,1,10.32,8.54h0a8.56,8.56,0,0,1,2.06,1.58,8.34,8.34,0,0,1-.13,11.7l-.12.11a8.35,8.35,0,0,1-5.81,2.34,8.45,8.45,0,0,1-3.44-.73,8.35,8.35,0,0,1-2.76-2Zm1.81-17a2,2,0,0,1,0,.43v9.58c0,.44,0,.82,0,1.13a2.71,2.71,0,0,1,0,.4v.08a4.23,4.23,0,0,0,.36,1.47,4.11,4.11,0,0,0,.86,1.25v0l.07,0,0,0a1.72,1.72,0,0,1,.44.41,4.43,4.43,0,0,0,1,.53,4.31,4.31,0,0,0,1.51.27,4.3,4.3,0,0,0,4.29-4.29,4.3,4.3,0,0,0-4.81-4.26h0l-.46.08A1.83,1.83,0,0,1,78.53,19a1.75,1.75,0,0,1,0-.44h0V18A1.82,1.82,0,0,1,80.3,16.2h0a2.76,2.76,0,0,0,1.74-4.71,2.72,2.72,0,0,0-2-.82,2.78,2.78,0,0,0-1.93.78,2.75,2.75,0,0,0-.83,1.7Zm-5.55,4.11a10.06,10.06,0,0,1,.4,2.9v9.42a2.11,2.11,0,0,1-.3,1.12,1.3,1.3,0,0,0-.1.15,2,2,0,0,1-1.61.8,1.91,1.91,0,0,1-1.44-.59.94.94,0,0,1-.1-.1,2,2,0,0,1-.5-1.38V21.12c0-.69,0-1.13,0-1.33s0-.58,0-.76a3.25,3.25,0,0,0-1-2.05,2.66,2.66,0,0,0-.85-.54,3.65,3.65,0,0,0-1.15-.18,2.66,2.66,0,0,0-.82.12,2.69,2.69,0,0,0-.67.3l-.1.06a2.87,2.87,0,0,0-.74.68,2.58,2.58,0,0,0-.38.8.23.23,0,0,1,0,.11,13.05,13.05,0,0,0-.2,2.82v8.43a2,2,0,0,1-.42,1.27,2,2,0,0,1-3.2,0h0a2,2,0,0,1-.41-1.27V21.12c0-.61,0-1,0-1.3a6,6,0,0,0-.06-.75h0v0a3.57,3.57,0,0,0-.34-1.19A3.09,3.09,0,0,0,57.1,17a2.73,2.73,0,0,0-.84-.54,3.46,3.46,0,0,0-1.12-.18,2.82,2.82,0,0,0-.83.12,2.87,2.87,0,0,0-.67.3l-.09.06a2.78,2.78,0,0,0-.75.69,2.35,2.35,0,0,0-.41.84l0,.06a12.42,12.42,0,0,0-.2,2.82v8.43a2.05,2.05,0,0,1-.43,1.27,1.87,1.87,0,0,1-1.59.8,1.91,1.91,0,0,1-1.61-.8h0a2.1,2.1,0,0,1-.41-1.27v-9c0-.52,0-1,.06-1.48a9.9,9.9,0,0,1,.15-1.16V17.8a7,7,0,0,1,.84-2.2,6.73,6.73,0,0,1,1.55-1.79,7,7,0,0,1,2-1.18,6.78,6.78,0,0,1,2.32-.4,7.13,7.13,0,0,1,2.41.4,6.61,6.61,0,0,1,2.09,1.2,7.2,7.2,0,0,1,.56.54l.52-.49a6.76,6.76,0,0,1,4.46-1.65,7.1,7.1,0,0,1,3,.63,6.44,6.44,0,0,1,2.29,1.78.53.53,0,0,0,.1.12,8,8,0,0,1,1.28,2.5ZM106.35,23a5.77,5.77,0,0,0-.42-2.24,5.86,5.86,0,0,0-1.29-1.88,6,6,0,0,0-1.88-1.29,5.89,5.89,0,0,0-2.27-.42,5.61,5.61,0,0,0-4.12,1.7,5.68,5.68,0,0,0-1.28,1.87A5.92,5.92,0,0,0,94.67,23a5.77,5.77,0,0,0,.42,2.24,6.18,6.18,0,0,0,1.29,1.89,5.91,5.91,0,0,0,1.9,1.3,5.78,5.78,0,0,0,2.25.42,5.6,5.6,0,0,0,4.13-1.71,5.74,5.74,0,0,0,1.27-1.88,6.06,6.06,0,0,0,.42-2.29Zm13.17-5.08a2.75,2.75,0,0,0-2-.82,2.79,2.79,0,0,0-2,.82,2.82,2.82,0,0,0-.81,2,2.79,2.79,0,0,0,.81,2h0a2.8,2.8,0,0,0,4.77-2,2.75,2.75,0,0,0-.82-2Z"/><path class="cls-1" d="M157.82,24.94a10,10,0,0,1-.41,2.9,7.59,7.59,0,0,1-1.28,2.5.63.63,0,0,1-.11.12,6.23,6.23,0,0,1-2.27,1.79,7.14,7.14,0,0,1-3,.62,6.71,6.71,0,0,1-2.37-.41,7,7,0,0,1-2.08-1.23l-.52-.49c-.17.18-.37.36-.56.53a6.69,6.69,0,0,1-2.1,1.21,7.32,7.32,0,0,1-2.4.39,6.7,6.7,0,0,1-2.32-.4,6.84,6.84,0,0,1-2-1.17,7.1,7.1,0,0,1-1.56-1.79,6.78,6.78,0,0,1-.83-2.21l0-.09a9.63,9.63,0,0,1-.15-1.16q-.06-.69-.06-1.47v-9a2.09,2.09,0,0,1,.42-1.28h0a2,2,0,0,1,3.2,0,2.07,2.07,0,0,1,.42,1.28V24a13,13,0,0,0,.2,2.81l0,.07a2.86,2.86,0,0,0,.41.84,2.94,2.94,0,0,0,.75.69.33.33,0,0,1,.1.06,2.87,2.87,0,0,0,.67.3,2.71,2.71,0,0,0,.82.12,3.2,3.2,0,0,0,1.12-.19,2.5,2.5,0,0,0,.85-.54,2.88,2.88,0,0,0,.64-.87,3.63,3.63,0,0,0,.35-1.2h0c0-.17,0-.42.06-.74s0-.7,0-1.31V15.53a2.09,2.09,0,0,1,.42-1.28h0a2,2,0,0,1,3.21,0,2.06,2.06,0,0,1,.41,1.28V24a13,13,0,0,0,.2,2.81.53.53,0,0,1,0,.12,2.59,2.59,0,0,0,.39.8,2.72,2.72,0,0,0,.74.68.47.47,0,0,1,.09.06,3.06,3.06,0,0,0,.67.3,2.76,2.76,0,0,0,.82.12,3.34,3.34,0,0,0,1.15-.19,2.56,2.56,0,0,0,.85-.54,3.25,3.25,0,0,0,1-2c0-.19,0-.44,0-.76s0-.65,0-1.34V15.53a2,2,0,0,1,.5-1.38l.1-.11a2,2,0,0,1,1.44-.59,1.94,1.94,0,0,1,1.61.8l.09.15a2,2,0,0,1,.32,1.13v9.41ZM189,30.46a2,2,0,0,1-.48,1.34l-.11.12a1.89,1.89,0,0,1-1.42.58,1.92,1.92,0,0,1-1.53-.7,1.94,1.94,0,0,1-.48-1.34V24.39h-2.7a2.84,2.84,0,0,0-2,.73,2.8,2.8,0,0,0-.64.86,3.47,3.47,0,0,0-.32,1.18s0,.07,0,.11,0,.39,0,.67c0,.73,0,1.44,0,2.16a2.69,2.69,0,0,1-.42,1.54h0a2,2,0,0,1-3.16.16,1.94,1.94,0,0,1-.49-1.34c0-5,0-9.94,0-14.93a2.06,2.06,0,0,1,.41-1.28,2,2,0,0,1,3.2,0,2.14,2.14,0,0,1,.42,1.26l0,0V21a7.26,7.26,0,0,1,3.07-.62h2.66V15.53a2.06,2.06,0,0,1,.41-1.28,2,2,0,0,1,3.2,0,2.06,2.06,0,0,1,.41,1.28V30.46ZM210,23c0,.1,0,.28,0,.51v0a3,3,0,0,1,0,.31v6.58a2,2,0,0,1-.49,1.35l-.08.09a1.93,1.93,0,0,1-1.45.61,1.91,1.91,0,0,1-1.52-.7,2.06,2.06,0,0,1-.43-.83l-.11.08a9.71,9.71,0,0,1-5.73,1.88A10,10,0,0,1,191,26.79a10.23,10.23,0,0,1,0-7.59A9.61,9.61,0,0,1,193.12,16h0a9.92,9.92,0,0,1,14,0,9.78,9.78,0,0,1,2.17,3.19h0A10,10,0,0,1,210,23Zm-4.07.74V22.23a5.46,5.46,0,0,0-.48-1.74,6.06,6.06,0,0,0-1.19-1.64l-.08-.09a5.91,5.91,0,0,0-1.8-1.2,5.83,5.83,0,0,0-2.26-.42A5.69,5.69,0,0,0,196,18.83a5.86,5.86,0,0,0-1.29,1.88,6.13,6.13,0,0,0-.42,2.28A5.59,5.59,0,0,0,196,27.13a5.76,5.76,0,0,0,1.9,1.3,5.83,5.83,0,0,0,2.26.42,5.71,5.71,0,0,0,3.87-1.5,5.93,5.93,0,0,0,1.91-3.65Zm-32.58,6.76a2,2,0,0,1-.48,1.34,2,2,0,0,1-2.94.13l-.18.11a7.23,7.23,0,0,1-3.49.83,6.78,6.78,0,0,1-2.32-.4,7.27,7.27,0,0,1-3.57-3,6.84,6.84,0,0,1-.85-2.18,11,11,0,0,1-.18-1.28c0-.46-.05-.95-.05-1.47v-9a2.05,2.05,0,0,1,.5-1.38l.11-.11a2,2,0,0,1,1.44-.59,1.83,1.83,0,0,1,1.65.92h0a2,2,0,0,1,.33,1.16V24a12.19,12.19,0,0,0,.21,2.81v.07a2.71,2.71,0,0,0,1.17,1.53s.07,0,.09.06a2.87,2.87,0,0,0,.67.3,2.76,2.76,0,0,0,.82.12,2.84,2.84,0,0,0,1.66-.51h0a2.67,2.67,0,0,0,1.16-1.58l0-.06a6.32,6.32,0,0,0,.12-.92v0a17.39,17.39,0,0,0,.07-1.75V15.53a2.06,2.06,0,0,1,.41-1.28,2,2,0,0,1,3.2,0,2.06,2.06,0,0,1,.41,1.28V30.46Z"/><path class="cls-2" d="M19.89,0A19.89,19.89,0,1,0,39.78,19.89,19.89,19.89,0,0,0,19.89,0Zm8,28.49a6.65,6.65,0,0,1-.27,1.92,5.25,5.25,0,0,1-.84,1.65.27.27,0,0,0-.07.08,4.28,4.28,0,0,1-1.51,1.18,4.83,4.83,0,0,1-2,.41,4.59,4.59,0,0,1-1.57-.27,4.71,4.71,0,0,1-1.37-.82l-.34-.32c-.12.12-.24.24-.37.35a4.5,4.5,0,0,1-1.39.8,4.91,4.91,0,0,1-1.59.26,4.48,4.48,0,0,1-2.88-1,4.57,4.57,0,0,1-1-1.17A4.42,4.42,0,0,1,12.07,30V30a5.94,5.94,0,0,1-.11-.77c0-.31,0-.63,0-1v-6a1.36,1.36,0,0,1,.27-.84,1.32,1.32,0,0,1,2.11,0,1.36,1.36,0,0,1,.28.85v5.56a8.5,8.5,0,0,0,.13,1.87l0,.05a1.61,1.61,0,0,0,.27.54,1.8,1.8,0,0,0,.49.46l.07,0A1.75,1.75,0,0,0,16,31a1.91,1.91,0,0,0,.54.08,2.09,2.09,0,0,0,.74-.12,1.83,1.83,0,0,0,.57-.36,2.21,2.21,0,0,0,.42-.58,2.5,2.5,0,0,0,.23-.79h0c0-.12,0-.28,0-.49V22.27a1.31,1.31,0,0,1,.28-.84,1.32,1.32,0,0,1,2.11,0,1.36,1.36,0,0,1,.28.85v5.56a8.31,8.31,0,0,0,.14,1.87s0,.05,0,.07a1.63,1.63,0,0,0,.25.53,1.65,1.65,0,0,0,.49.45l.06,0a1.93,1.93,0,0,0,.44.2,1.91,1.91,0,0,0,.54.08,2.2,2.2,0,0,0,.76-.12,1.72,1.72,0,0,0,.57-.36,2.27,2.27,0,0,0,.65-1.35c0-.12,0-.29,0-.5s0-.43,0-.89V22.27a1.34,1.34,0,0,1,.33-.91.23.23,0,0,1,.07-.07,1.28,1.28,0,0,1,.95-.39,1.25,1.25,0,0,1,1.06.53.47.47,0,0,1,.06.09,1.37,1.37,0,0,1,.21.75Zm0-11a1.33,1.33,0,0,1-.21.74.33.33,0,0,1-.06.1,1.34,1.34,0,0,1-2,.14.23.23,0,0,1-.07-.07,1.34,1.34,0,0,1-.33-.91V11.92c0-.45,0-.75,0-.88s0-.38,0-.5a2.27,2.27,0,0,0-.65-1.35,1.72,1.72,0,0,0-.57-.36,2.2,2.2,0,0,0-.76-.12,1.91,1.91,0,0,0-.54.08,1.93,1.93,0,0,0-.44.2l-.06,0a1.65,1.65,0,0,0-.49.45,1.67,1.67,0,0,0-.25.52s0,.06,0,.08a8.21,8.21,0,0,0-.14,1.86v5.57a1.31,1.31,0,0,1-.28.84,1.22,1.22,0,0,1-1.05.53,1.24,1.24,0,0,1-1.06-.53,1.37,1.37,0,0,1-.28-.84V11.06c0-.21,0-.38,0-.49h0a2.43,2.43,0,0,0-.23-.79,2.06,2.06,0,0,0-.42-.58,1.83,1.83,0,0,0-.57-.36,2.09,2.09,0,0,0-.74-.12,1.91,1.91,0,0,0-.54.08,1.75,1.75,0,0,0-.44.2L15.5,9a1.93,1.93,0,0,0-.49.45,1.71,1.71,0,0,0-.27.56l0,0a8.39,8.39,0,0,0-.13,1.86v5.57a1.31,1.31,0,0,1-.28.84,1.22,1.22,0,0,1-1.05.53,1.24,1.24,0,0,1-1.06-.53,1.36,1.36,0,0,1-.27-.84v-6c0-.34,0-.67,0-1a5.94,5.94,0,0,1,.11-.77V9.73a4.45,4.45,0,0,1,.55-1.46,4.78,4.78,0,0,1,1-1.18A4.84,4.84,0,0,1,15,6.31a4.64,4.64,0,0,1,1.53-.26,4.91,4.91,0,0,1,1.59.26,4.5,4.5,0,0,1,1.39.8c.13.11.25.23.37.35.11-.11.22-.22.34-.32a4.5,4.5,0,0,1,1.37-.82,4.59,4.59,0,0,1,1.57-.27,4.83,4.83,0,0,1,2,.41,4.28,4.28,0,0,1,1.51,1.18.5.5,0,0,0,.07.08,5.14,5.14,0,0,1,.84,1.65,6.65,6.65,0,0,1,.27,1.92Z"/></g></g></svg>