<svg xmlns="http://www.w3.org/2000/svg" viewBox="0 0 195.05 46.97"><defs><style>.cls-1{fill:#fff;}</style></defs><g id="Layer_2" data-name="Layer 2"><g id="pic"><path class="cls-1" d="M90.51,37.62h0c1.09,0,2.24-.25,2.24-1.62a1.7,1.7,0,0,0-1.85-1.66H89.11v3.28ZM76.68,35.31h0l-1.22,3H77.8l-1.12-3Zm31.29,0h0l-1.21,3h2.34l-1.13-3ZM57.65,39.45h0l-1.51-4.26-1.5,4.26ZM53.5,42.67H52.25L55.53,34h1.23L60,42.67H58.79L58,40.43H54.32l-.82,2.24Zm11,4.3a.29.29,0,0,1-.3-.3.3.3,0,0,1,.3-.3h57.59a.31.31,0,0,1,.3.3.3.3,0,0,1-.3.3Zm0-17.23a.3.3,0,1,1,0-.59h57.59a.3.3,0,1,1,0,.59Zm42.91,4.47h-1v-.53h2.11c.07,0,3.25,7.82,3.25,7.82.53,1.16,1,.42,1,1v.22h-3.09V42.5c0-.48.72-.12.72-.6a2,2,0,0,0-.16-.69l-.93-2.3-2.78,0-1,2.2a2.33,2.33,0,0,0-.23.72c0,.56.71.19.71.69v.22h-2.47V42.5c0-.54.48.11,1.12-1.29l2.76-7Zm-31.3,0h-1v-.53h2.11c.07,0,3.25,7.82,3.25,7.82.53,1.16,1,.42,1,1v.22h-3.1V42.5c0-.48.72-.12.72-.6a2,2,0,0,0-.16-.69L78,38.91l-2.78,0-1,2.2a2.11,2.11,0,0,0-.24.72c0,.56.71.19.71.69v.22H72.23V42.5c0-.54.47.11,1.11-1.29l2.76-7Zm39.7,6.9c-.11.16-.33.42-.33.62,0,.49.77.19.77.62v.23h-2.63v-.23c0-.48.36.13,1.18-1l2.39-3.22-2.45-3.33c-.62-.85-1-.26-1-.78v-.22h3.15V34c0,.45-.59.17-.59.54,0,.16.19.36.29.49l1.56,2.1,1.19-1.59c.15-.21.54-.7.54-.95,0-.52-.68-.09-.68-.59v-.22h2.67V34c0,.54-.5-.06-1.45,1.19l-1.88,2.44,2.8,3.85c.61.83,1,.37,1,.83v.23h-3.28v-.23c0-.45.75-.13.75-.55,0-.15-.18-.33-.26-.45l-2-2.63-1.78,2.39ZM98.64,37.83h1.74c1.43,0,.63-.86,1.51-.86h.24v2.3h-.31c-.83,0,0-.88-1.44-.88H98.64v3.16c0,1,.76.35.76.9v.22h-3v-.22c0-.55.76.13.76-.9V35c0-1-.76-.35-.76-.9v-.23h5.67a2.27,2.27,0,0,0,.93-.18v2.21h-.35c-.91,0,0-1.47-2-1.47h-2v3.36Zm-9.53,3.63c0,1,.77.34.77.89v.23h-3v-.23c0-.55.78.14.78-.89V34.94c0-1-.77-.35-.77-.9v-.22h4.42c1,0,3,.44,3,2.12,0,1.47-1.48,2-3,2v0c.67.07.91.55,1.23,1l1.63,2.35c.75,1.1,1.2.41,1.2,1v.23h-2.1l-1.82-2.74c-.81-1.24-1-1.7-1.94-1.7h-.44v3.32Zm-6.87,1.12v-.23c0-.55.76.14.76-.89V34.94c0-1-.76-.35-.76-.9v-.22h3V34c0,.55-.76-.13-.76.9v6.52c0,1,.76.34.76.89v.23Zm54.67-2.78a3.34,3.34,0,0,1-3.65,3.13c-2.57,0-4.12-1.67-4.12-4.44,0-4.6,3.35-4.73,4.08-4.73,2.75,0,3.45,1.61,3.58,2.93h-1.16a2.12,2.12,0,0,0-2.42-1.95c-2.16,0-2.84,1.82-2.84,3.7S131.48,42,133.3,42a2.29,2.29,0,0,0,2.45-2.15ZM143.07,42h0c.59,0,2.89-.12,2.89-3.61,0-2-.9-3.6-2.89-3.6-2.65,0-2.89,2.66-2.89,3.6,0,1.4.42,3.61,2.89,3.61Zm0-8.19c1.91,0,4.12,1.06,4.12,4.58,0,4.52-3.59,4.59-4.12,4.59s-4.13-.07-4.13-4.59c0-3,1.72-4.58,4.13-4.58ZM151,35.4h0l0,.34v6.93H149.8V34h1.74l2.71,7.11L157,34h1.74v8.65h-1.16V35.74l0-.34h0l-2.8,7.27h-.94L151,35.4Zm12,2.84h2.12c1.39,0,2-.58,2-1.71s-.64-1.54-2-1.54H163v3.25ZM165.32,34c1.76,0,2.92.69,2.92,2.48,0,1.62-.8,2.72-3,2.72H163v3.45H161.8V34ZM175,39.45h0l-1.51-4.26L172,39.45Zm-4.15,3.22h-1.25L172.86,34h1.24l3.27,8.65h-1.24l-.82-2.24h-3.66l-.81,2.24Zm9.7,0h-1.16V34h1.28l4.6,6.85V34h1.16v8.65h-1.27l-4.61-6.86v6.86ZM193.67,34h1.38l-3.2,5v3.61h-1.16V39.06l-3.21-5h1.38l2.41,4,2.4-4ZM67.49,37.83h1.74c1.43,0,.63-.86,1.51-.86H71v2.3h-.31c-.83,0,0-.88-1.44-.88H67.49v3.16c0,1,.76.35.76.9v.22h-3v-.22c0-.55.76.13.76-.9V35c0-1-.76-.35-.76-.9v-.23H71a2.24,2.24,0,0,0,.93-.18v2.21h-.35c-.91,0,0-1.47-2-1.47h-2v3.36Z"/><path class="cls-1" d="M90.14,3.32v7.89h3.51a5.89,5.89,0,0,0,2-.23,4,4,0,0,0,2.62-2.64A4,4,0,0,0,97.61,5a4.19,4.19,0,0,0-3.34-1.72Zm35.12,9.51h6.36c-1.05-2.51-2.1-5-3.16-7.52q-1.61,3.75-3.2,7.52Zm56.85,0h6.37c-1-2.51-2.1-5-3.16-7.52-1.08,2.5-2.14,5-3.21,7.52ZM3.17.38V11.52a5.45,5.45,0,0,0,1,3,6,6,0,0,0,4.62,2.55,5.76,5.76,0,0,0,3-.68,5.76,5.76,0,0,0,2.8-3.84,10.39,10.39,0,0,0,.11-2.09V.11h3.17V11.32A9.54,9.54,0,0,1,17.46,14a8.82,8.82,0,0,1-10.6,6,9.16,9.16,0,0,1-5.28-3.62A8.73,8.73,0,0,1,0,11.63V.11H3.17V.38ZM35.43,14.06V.11h3.15V18.47A1.51,1.51,0,0,1,37.43,20a1.47,1.47,0,0,1-1.49-.46L25,6.06V20.12H21.79V1.81A1.61,1.61,0,0,1,23.46.15a1.69,1.69,0,0,1,1.22.66L35.43,14.06ZM46.29.38V20.12H43.13v-.27q0-9.74,0-19.47V.11h3.17V.38ZM57.8,14.57,64,.27,64,.11h3.4l-.16.38c-2.66,6.21-5.35,12.41-8,18.62a1.59,1.59,0,0,1-1.79.94,1.68,1.68,0,0,1-1.16-1q-4-9.28-8-18.55L48.17.11h3.4l.07.16q3.07,7.15,6.16,14.3ZM72.38,3.32v5h7.48v3.15H72.38v5.47h11v3.16h-.27q-6.15,0-12.29,0a1.56,1.56,0,0,1-1.56-1.61V1.72A1.58,1.58,0,0,1,70.79.16H83.34V3.32h-11Zm29.83,16.8H98.34l-3.73-5.76H90.14c0,1.83,0,3.66,0,5.49v.27H87v-.27q0-9.08,0-18.15A1.59,1.59,0,0,1,88.55.15h5.61a7.68,7.68,0,0,1,5,1.92,7.18,7.18,0,0,1,1.74,8.11,7.06,7.06,0,0,1-3,3.2l4.23,6.74ZM132.94,16c-3,0-6,0-9,0-.58,1.31-1.14,2.65-1.71,4l-.07.16h-3.4l.16-.38Q123,10.43,127,1.1a1.51,1.51,0,0,1,1.43-.95,1.53,1.53,0,0,1,1.45,1l8.05,18.6.16.38h-3.38l-.08-.16c-.57-1.32-1.15-2.64-1.7-4Zm10.26.93h10.4v3.14h-.28q-5.65,0-11.31,0A2.24,2.24,0,0,1,141,20a1.57,1.57,0,0,1-.92-1.48V.1h3.17V16.92Zm27.34-2.82V.15h3.15V18.51a1.53,1.53,0,0,1-1.15,1.57,1.46,1.46,0,0,1-1.5-.46l-11-13.52V20.17h-3.16V1.85A1.62,1.62,0,0,1,158.56.2a1.67,1.67,0,0,1,1.22.65q5.37,6.63,10.76,13.25ZM189.8,16c-3,0-6,0-9,0-.58,1.31-1.14,2.65-1.71,4l-.07.16h-3.4l.16-.38q4-9.33,8.05-18.64A1.52,1.52,0,0,1,185.3.15a1.54,1.54,0,0,1,1.45,1l8.05,18.6.16.38h-3.39L191.5,20c-.57-1.32-1.15-2.64-1.7-4ZM109.89.08a7.91,7.91,0,0,1,4.57.7,6.23,6.23,0,0,1,2,1.49l.15.18-.15.18c-.57.64-1.13,1.3-1.68,2l-.19.22-.21-.21a4.45,4.45,0,0,0-1.92-1.25,4.41,4.41,0,0,0-4.3.92,2.1,2.1,0,0,0-.43,2.06,2.07,2.07,0,0,0,1,1,16.9,16.9,0,0,0,3.45,1.09,11.07,11.07,0,0,1,3.71,1.74,4.77,4.77,0,0,1,1.74,2.63,5.78,5.78,0,0,1-1.17,5A7,7,0,0,1,113,20a8.17,8.17,0,0,1-6.35-.87,8,8,0,0,1-2-1.68l-.15-.18.15-.18c.6-.68,1.18-1.37,1.77-2.07l.24-.28.24.38a5.1,5.1,0,0,0,6.32,1.43,2.69,2.69,0,0,0,1.4-2.16,2,2,0,0,0-.74-1.74,9.63,9.63,0,0,0-3-1.22,10.79,10.79,0,0,1-4.71-2,4.65,4.65,0,0,1-1.7-3.06,5.15,5.15,0,0,1,.94-3.67A6.51,6.51,0,0,1,109.89.08Z"/></g></g></svg>