<svg xmlns="http://www.w3.org/2000/svg" viewBox="0 0 162.69 40.04"><defs><style>.cls-1{fill:#fff;}</style></defs><g id="Layer_2" data-name="Layer 2"><g id="pic"><path class="cls-1" d="M96.41,13.07q-3.37-.06-6.75,0a2.63,2.63,0,0,0-2.61,2.09c-.42,2-.74,4.07-1.12,6.18H97.14c.36-2,.74-4,1-6C98.4,14,97.74,13.1,96.41,13.07Z"/><path class="cls-1" d="M162.65,3.65c-.26-2.06-2.23-3.66-5-3.65Q121.36.08,85,0H12.35A6.91,6.91,0,0,0,5.1,6l-5,28.3A4.62,4.62,0,0,0,4.92,40H150.58a7,7,0,0,0,7.09-6q2.31-13,4.6-26.12A15.18,15.18,0,0,0,162.65,3.65ZM27,32.27a5.31,5.31,0,0,1-3.82-3.08c-.73-1.4-1.45-2.8-2.25-4.36l-2.55,2.92c-.7.79-1.36,1.63-2.12,2.36-2.36,2.26-5.21,2.76-8.54,2.16l6.35-7.39c1.27-1.47,4.36-5,4.36-5L12.73,8.67c-.17-.34-.33-.69-.49-1a6.48,6.48,0,0,1,8.33,3.23c.69,1.3,1.36,2.62,2.12,4.1.56-.64,1-1.21,1.54-1.77.69-.8,1.43-1.56,2.08-2.39C28.76,7.67,32,6.87,35.9,7.53l-.77.93L25.26,19.91,31,31.3c.15.3.29.62.48,1A30.13,30.13,0,0,1,27,32.27ZM47.06,13c-.53,2.87-1,5.5-1.51,8.26-.37,2.08-.73,4.16-1.1,6.23A5.68,5.68,0,0,1,38,32.25c1.12-6.37,2.24-12.73,3.37-19.21h-7l4.81-5.57H56.35c-1.14,4-3.55,5.57-6.81,5.57Zm31.09,1.54A26.73,26.73,0,0,1,77.56,18a7.49,7.49,0,0,1-5.8,6l4.16,8.25c-3.79,1.06-6.81-.26-8.57-3.71-.55-1.09-1.09-2.2-1.69-3.27a1.24,1.24,0,0,0-.83-.58c-1.72,0-3.44,0-5.26,0-.2,1.14-.39,2.24-.61,3.33a5.58,5.58,0,0,1-6.29,4.32c.16-1,.32-2,.49-3,.29-1.66.58-3.33.88-5,.5-2.87,2.11-4.34,5-4.34H69.35a2.09,2.09,0,0,0,2-1.37l.9-4.06c.21-.95-.62-1.54-1.55-1.54-4.3,0-8.9,0-13.2,0H56.22A8.64,8.64,0,0,1,61,8.38a12.93,12.93,0,0,1,4-.85c2.28-.13,4.58,0,6.87,0A6.23,6.23,0,0,1,78.15,14.58Zm25.7.64c-.45,2.89-1,5.76-1.5,8.64-.19,1.07-.37,2.15-.56,3.22a6.28,6.28,0,0,1-6.54,5.29c.37-2.12.72-4.16,1.09-6.26H85.23c-1.26,4.5-3.11,6.22-6.76,6.19.32-1.77.62-3.52.93-5.28.7-3.91,1.37-7.83,2.09-11.74A9.44,9.44,0,0,1,90.83,7.5c2.15,0,4.3,0,6.45,0C101.77,7.52,104.55,10.77,103.85,15.22Zm49.6-3.72c-2.45,5.5-4.92,11-7.33,16.5a7.56,7.56,0,0,1-9.18,3.84,4.37,4.37,0,0,1-3.12-4c-.45-4.91-.89-9.74-1.34-14.8h-5.57s-.07.46-.13.77c-.87,4.71-1.69,9.43-2.56,14.14a5.57,5.57,0,0,1-6.31,4.22l1.68-9.56L121.26,13H113a6,6,0,0,1,3.1-4.63,8,8,0,0,1,3.4-.94h13.64a6.38,6.38,0,0,1,3,.66A3.65,3.65,0,0,1,138,11.06c.46,5,.92,10,1.41,15.05,0,.44.08,1.17.52,1.27s.88-.59,1.07-1c2.26-5,4.47-10,6.71-15a6.52,6.52,0,0,1,7.45-3.8Z"/></g></g></svg>